<svg width="32" height="32" viewBox="0 0 32 32" fill="none" xmlns="http://www.w3.org/2000/svg">
<circle cx="16" cy="16" r="16" fill="#F5D9A8"/>
<circle cx="16.0002" cy="16.0002" r="9.16667" fill="white" stroke="#AB6100" stroke-width="3"/>
<path fill-rule="evenodd" clip-rule="evenodd" d="M24 16C24 20.4183 20.4183 24 16 24C11.5817 24 8 20.4183 8 16C8 11.5817 11.5817 8 16 8C20.4183 8 24 11.5817 24 16ZM14.6667 12C14.6667 11.2636 15.2636 10.6667 16 10.6667C16.7364 10.6667 17.3333 11.2636 17.3333 12V16C17.3333 16.7364 16.7364 17.3333 16 17.3333C15.2636 17.3333 14.6667 16.7364 14.6667 16V12ZM16 18.6667C15.2636 18.6667 14.6667 19.2636 14.6667 20C14.6667 20.7364 15.2636 21.3333 16 21.3333C16.7364 21.3333 17.3333 20.7364 17.3333 20C17.3333 19.2636 16.7364 18.6667 16 18.6667Z" fill="#AB6100"/>
</svg>
