<svg width="32" height="32" viewBox="0 0 32 32" fill="none" xmlns="http://www.w3.org/2000/svg">
<circle cx="16" cy="16" r="16" fill="#C3E6CD"/>
<circle cx="16.0002" cy="16.0002" r="9.16667" fill="white" stroke="#108548" stroke-width="3"/>
<path fill-rule="evenodd" clip-rule="evenodd" d="M16 24C20.4183 24 24 20.4183 24 16C24 11.5817 20.4183 8 16 8C11.5817 8 8 11.5817 8 16C8 20.4183 11.5817 24 16 24ZM19.4349 14.6402C19.7885 14.2159 19.7311 13.5853 19.3069 13.2318C18.8826 12.8782 18.252 12.9355 17.8984 13.3598L15.2661 16.5186L14.0404 15.2929C13.6499 14.9024 13.0168 14.9024 12.6262 15.2929C12.2357 15.6834 12.2357 16.3166 12.6262 16.7071L14.6262 18.7071C14.8249 18.9058 15.098 19.0117 15.3786 18.999C15.6593 18.9862 15.9217 18.856 16.1016 18.6402L19.4349 14.6402Z" fill="#108548"/>
</svg>
