<svg width="24" height="24" viewBox="0 0 24 24" fill="none" xmlns="http://www.w3.org/2000/svg">
<g clip-path="url(#clip0_7_1971)">
<path d="M12.1688 10.5803C12.1488 10.5547 12.1232 10.5339 12.094 10.5197C12.0647 10.5054 12.0326 10.498 12.0001 10.498C11.9676 10.498 11.9355 10.5054 11.9062 10.5197C11.877 10.5339 11.8514 10.5547 11.8313 10.5803L8.83135 14.3758C8.80662 14.4074 8.79127 14.4453 8.78707 14.4852C8.78286 14.5251 8.78997 14.5653 8.80757 14.6014C8.82517 14.6374 8.85256 14.6678 8.88661 14.689C8.92066 14.7102 8.95999 14.7214 9.0001 14.7213H10.9796V21.2142C10.9796 21.3321 11.076 21.4285 11.1938 21.4285H12.801C12.9188 21.4285 13.0153 21.3321 13.0153 21.2142V14.724H15.0001C15.1796 14.724 15.2787 14.5178 15.1688 14.3785L12.1688 10.5803Z" fill="#8692A6"/>
<path d="M20.0196 8.1079C18.7929 4.87218 15.667 2.57129 12.0054 2.57129C8.34375 2.57129 5.21786 4.8695 3.99107 8.10522C1.69554 8.7079 0 10.7999 0 13.2856C0 16.2454 2.39732 18.6427 5.35446 18.6427H6.42857C6.54643 18.6427 6.64286 18.5463 6.64286 18.4284V16.8213C6.64286 16.7034 6.54643 16.607 6.42857 16.607H5.35446C4.45179 16.607 3.60268 16.2481 2.97054 15.5972C2.34107 14.949 2.00625 14.0758 2.03571 13.1704C2.05982 12.4633 2.30089 11.799 2.7375 11.2391C3.18482 10.6686 3.81161 10.2534 4.50804 10.0686L5.52321 9.80343L5.89554 8.82307C6.12589 8.21236 6.44732 7.64182 6.85179 7.12486C7.25108 6.61247 7.72407 6.16205 8.25536 5.78825C9.35625 5.01415 10.6527 4.60432 12.0054 4.60432C13.358 4.60432 14.6545 5.01415 15.7554 5.78825C16.2884 6.16325 16.7598 6.61325 17.1589 7.12486C17.5634 7.64182 17.8848 8.21504 18.1152 8.82307L18.4848 9.80075L19.4973 10.0686C20.9491 10.4597 21.9643 11.7802 21.9643 13.2856C21.9643 14.1722 21.6187 15.0079 20.992 15.6347C20.6846 15.9439 20.3189 16.189 19.9162 16.3559C19.5134 16.5228 19.0815 16.6081 18.6455 16.607H17.5714C17.4536 16.607 17.3571 16.7034 17.3571 16.8213V18.4284C17.3571 18.5463 17.4536 18.6427 17.5714 18.6427H18.6455C21.6027 18.6427 24 16.2454 24 13.2856C24 10.8025 22.3098 8.71325 20.0196 8.1079Z" fill="#8692A6"/>
</g>
<defs>
<clipPath id="clip0_7_1971">
<rect width="24" height="24" fill="white"/>
</clipPath>
</defs>
</svg>
