<svg width="24" height="20" viewBox="0 0 24 20" fill="none" xmlns="http://www.w3.org/2000/svg">
<path d="M20.5715 8.76604H18.7501V3.85695C18.7501 2.30752 17.2153 1.05176 15.3215 1.05176H8.67868C6.78493 1.05176 5.2501 2.30752 5.2501 3.85695V8.76604H3.42868C2.95457 8.76604 2.57153 9.07944 2.57153 9.46734V17.8829C2.57153 18.2708 2.95457 18.5842 3.42868 18.5842H20.5715C21.0456 18.5842 21.4287 18.2708 21.4287 17.8829V9.46734C21.4287 9.07944 21.0456 8.76604 20.5715 8.76604ZM7.17868 3.85695C7.17868 3.17976 7.851 2.62968 8.67868 2.62968H15.3215C16.1492 2.62968 16.8215 3.17976 16.8215 3.85695V8.76604H7.17868V3.85695ZM19.5001 17.0063H4.5001V10.344H19.5001V17.0063ZM11.2501 13.96V15.1216C11.2501 15.218 11.3465 15.2969 11.4644 15.2969H12.5358C12.6537 15.2969 12.7501 15.218 12.7501 15.1216V13.96C12.9712 13.8302 13.1362 13.6462 13.2215 13.4347C13.3067 13.2232 13.3076 12.995 13.2243 12.783C13.1409 12.571 12.9774 12.3861 12.7575 12.255C12.5375 12.1238 12.2723 12.0532 12.0001 12.0532C11.7279 12.0532 11.4627 12.1238 11.2428 12.255C11.0228 12.3861 10.8593 12.571 10.7759 12.783C10.6926 12.995 10.6935 13.2232 10.7788 13.4347C10.864 13.6462 11.029 13.8302 11.2501 13.96Z" fill="white"/>
</svg>
